<?xml version="1.0" encoding="UTF-8" standalone="no"?><!DOCTYPE svg PUBLIC "-//W3C//DTD SVG 1.1//EN" "http://www.w3.org/Graphics/SVG/1.1/DTD/svg11.dtd"><!-- Generated by graphviz version 2.40.1 (20161225.0304)
 --><!-- Title: %0 Pages: 1 --><svg xmlns="http://www.w3.org/2000/svg" xmlns:xlink="http://www.w3.org/1999/xlink" width="3013pt" height="1690pt" viewBox="0.00 0.00 3012.72 1690.24">
<g id="graph0" class="graph" transform="scale(1 1) rotate(0) translate(4 1686.24)">
<title>%0</title>
<polygon fill="#ffffff" stroke="transparent" points="-4,4 -4,-1686.24 3008.7167,-1686.24 3008.7167,4 -4,4"/>
<g id="clust1" class="cluster">
<title>cluster_g</title>
<polygon fill="#d3d3d3" stroke="#d3d3d3" points="2293.8572,-812.2984 2293.8572,-1279.9141 2996.7167,-1279.9141 2996.7167,-812.2984 2293.8572,-812.2984"/>
<text text-anchor="middle" x="2645.287" y="-1239.9141" font-family="Times,serif" font-size="40.00" fill="#000000">Deep Ensemble</text>
</g>
<g id="clust2" class="cluster">
<title>cluster_c</title>
<polygon fill="#d3d3d3" stroke="#d3d3d3" points="64.4878,-696.1297 64.4878,-1163.7454 329.4626,-1163.7454 329.4626,-696.1297 64.4878,-696.1297"/>
<text text-anchor="middle" x="196.9752" y="-1123.7454" font-family="Times,serif" font-size="40.00" fill="#000000">Image Analysis</text>
</g>
<g id="clust3" class="cluster">
<title>cluster_d</title>
<polygon fill="#d3d3d3" stroke="#d3d3d3" points="0,-1369.6139 0,-1546.0727 393.9505,-1546.0727 393.9505,-1369.6139 0,-1369.6139"/>
<text text-anchor="middle" x="196.9752" y="-1506.0727" font-family="Times,serif" font-size="40.00" fill="#000000">Semantic Segmentation</text>
</g>
<g id="clust4" class="cluster">
<title>cluster_e</title>
<polygon fill="#d3d3d3" stroke="#d3d3d3" points="438.1628,-743.1854 438.1628,-951.9949 1544.2084,-951.9949 1544.2084,-743.1854 438.1628,-743.1854"/>
<text text-anchor="middle" x="991.1856" y="-759.1854" font-family="Times,serif" font-size="40.00" fill="#000000">Preprocessing</text>
</g>
<g id="clust5" class="cluster">
<title>cluster_f</title>
<polygon fill="#d3d3d3" stroke="#d3d3d3" points="1565.6682,-49.1143 1565.6682,-346.1532 2509.7528,-346.1532 2509.7528,-49.1143 1565.6682,-49.1143"/>
<text text-anchor="middle" x="2037.7105" y="-306.1532" font-family="Times,serif" font-size="40.00" fill="#000000">Processing</text>
</g>
<g id="clust6" class="cluster">
<title>cluster_h</title>
<polygon fill="#d3d3d3" stroke="#d3d3d3" points="422.1687,-50.5848 422.1687,-432.9121 1489.8728,-432.9121 1489.8728,-50.5848 422.1687,-50.5848"/>
<text text-anchor="middle" x="956.0208" y="-392.9121" font-family="Times,serif" font-size="40.00" fill="#000000">Tracker</text>
</g>
<!-- A -->
<g id="node1" class="node">
<title>A</title>
<polygon fill="none" stroke="#0000ff" points="304.5905,-1317.9297 88.8429,-1317.9297 88.8429,-1212.5558 304.5905,-1212.5558 304.5905,-1317.9297"/>
<polygon fill="none" stroke="#0000ff" points="308.5972,-1321.9363 84.8362,-1321.9363 84.8362,-1208.5492 308.5972,-1208.5492 308.5972,-1321.9363"/>
<polygon fill="none" stroke="#0000ff" points="312.6039,-1325.9429 80.8295,-1325.9429 80.8295,-1204.5426 312.6039,-1204.5426 312.6039,-1325.9429"/>
<text text-anchor="middle" x="196.7167" y="-1289.5427" font-family="Times,serif" font-size="27.00" fill="#000000">Input:</text>
<text text-anchor="middle" x="196.7167" y="-1257.1427" font-family="Times,serif" font-size="27.00" fill="#000000"> 1280X1024</text>
<text text-anchor="middle" x="196.7167" y="-1224.7427" font-family="Times,serif" font-size="27.00" fill="#000000"> Grayscale Images</text>
</g>
<!-- B1 -->
<g id="node11" class="node">
<title>B1</title>
<ellipse fill="#ffffff" stroke="#ffffff" cx="593.7167" cy="-889.2427" rx="147.324" ry="35.2113"/>
<text text-anchor="middle" x="593.7167" y="-878.7427" font-family="Times,serif" font-size="35.00" fill="#000000">Segmentation</text>
</g>
<!-- A&#45;&gt;B1 -->
<g id="edge9" class="edge">
<title>A-&gt;B1</title>
<path fill="none" stroke="#000000" stroke-width="3" d="M312.5068,-1220.1825C340.9282,-1206.0457 370.084,-1188.6842 394.1919,-1168.2427 474.3823,-1100.2482 538.8654,-993.3372 571.1651,-933.5294"/>
<polygon fill="#000000" stroke="#000000" stroke-width="3" points="574.4449,-934.8177 576.0701,-924.3483 568.2708,-931.5192 574.4449,-934.8177"/>
</g>
<!-- G0 -->
<g id="node2" class="node">
<title>G0</title>
<ellipse fill="#ffffff" stroke="#ffffff" cx="2883.7167" cy="-978.2427" rx="100.6942" ry="100.6942"/>
<ellipse fill="none" stroke="#ffffff" cx="2883.7167" cy="-978.2427" rx="104.6883" ry="104.6883"/>
<text text-anchor="middle" x="2883.7167" y="-987.2427" font-family="Times,serif" font-size="30.00" fill="#000000">Model</text>
<text text-anchor="middle" x="2883.7167" y="-951.2427" font-family="Times,serif" font-size="30.00" fill="#000000">Averaging</text>
</g>
<!-- B2 -->
<g id="node12" class="node">
<title>B2</title>
<ellipse fill="#ffffff" stroke="#ffffff" cx="1388.7167" cy="-889.2427" rx="147.3042" ry="35.2113"/>
<text text-anchor="middle" x="1388.7167" y="-878.7427" font-family="Times,serif" font-size="35.00" fill="#000000">Classification</text>
</g>
<!-- G0&#45;&gt;B2 -->
<g id="edge25" class="edge">
<title>G0-&gt;B2</title>
<path fill="none" stroke="#000000" stroke-width="5" stroke-dasharray="1,5" d="M2817.6701,-883.9256C2774.4765,-834.1381 2713.1073,-783.2427 2642.7167,-783.2427 1674.7167,-783.2427 1674.7167,-783.2427 1674.7167,-783.2427 1593.7911,-783.2427 1507.5632,-821.0182 1451.2032,-851.4676"/>
<polygon fill="#000000" stroke="#000000" stroke-width="5" points="2814.366,-886.7937 2824.1771,-891.5773 2821.0316,-881.1252 2814.366,-886.7937"/>
<polygon fill="#000000" stroke="#000000" stroke-width="5" points="1449.0839,-847.6401 1442.4196,-856.2847 1453.2914,-855.3121 1449.0839,-847.6401"/>
</g>
<!-- G1 -->
<g id="node3" class="node">
<title>G1</title>
<polygon fill="#ffffff" stroke="#ffffff" points="2473.1601,-1170.6111 2334.2733,-1170.6111 2334.2733,-1129.8744 2473.1601,-1129.8744 2473.1601,-1170.6111"/>
<polygon fill="none" stroke="#ffffff" points="2477.1585,-1174.6444 2330.2749,-1174.6444 2330.2749,-1125.8411 2477.1585,-1125.8411 2477.1585,-1174.6444"/>
<text text-anchor="middle" x="2403.7167" y="-1142.1427" font-family="Times,serif" font-size="27.00" fill="#000000">Darknet-19</text>
</g>
<!-- G1&#45;&gt;G0 -->
<g id="edge1" class="edge">
<title>G1-&gt;G0</title>
<path fill="none" stroke="#000000" d="M2471.4709,-1125.9641C2553.1324,-1096.7021 2691.0258,-1047.2903 2784.6334,-1013.7476"/>
</g>
<!-- G2 -->
<g id="node4" class="node">
<title>G2</title>
<polygon fill="#ffffff" stroke="#ffffff" points="2486.6809,-1073.6111 2320.7525,-1073.6111 2320.7525,-1032.8744 2486.6809,-1032.8744 2486.6809,-1073.6111"/>
<polygon fill="none" stroke="#ffffff" points="2490.6801,-1077.6444 2316.7533,-1077.6444 2316.7533,-1028.8411 2490.6801,-1028.8411 2490.6801,-1077.6444"/>
<text text-anchor="middle" x="2403.7167" y="-1045.1427" font-family="Times,serif" font-size="27.00" fill="#000000">MobileNetV2</text>
</g>
<!-- G2&#45;&gt;G0 -->
<g id="edge2" class="edge">
<title>G2-&gt;G0</title>
<path fill="none" stroke="#000000" d="M2490.9194,-1039.6173C2572.2751,-1026.9055 2693.7311,-1007.928 2780.0204,-994.4453"/>
</g>
<!-- G3 -->
<g id="node5" class="node">
<title>G3</title>
<polygon fill="#ffffff" stroke="#ffffff" points="2471.159,-976.6111 2336.2744,-976.6111 2336.2744,-935.8744 2471.159,-935.8744 2471.159,-976.6111"/>
<polygon fill="none" stroke="#ffffff" points="2475.1718,-980.6444 2332.2616,-980.6444 2332.2616,-931.8411 2475.1718,-931.8411 2475.1718,-980.6444"/>
<text text-anchor="middle" x="2403.7167" y="-948.1427" font-family="Times,serif" font-size="27.00" fill="#000000">ShuffleNet</text>
</g>
<!-- G3&#45;&gt;G0 -->
<g id="edge3" class="edge">
<title>G3-&gt;G0</title>
<path fill="none" stroke="#000000" d="M2475.0592,-959.5126C2555.3655,-963.1933 2686.6143,-969.2089 2778.6481,-973.4271"/>
</g>
<!-- G4 -->
<g id="node6" class="node">
<title>G4</title>
<polygon fill="#ffffff" stroke="#ffffff" points="2501.6699,-879.6111 2305.7635,-879.6111 2305.7635,-838.8744 2501.6699,-838.8744 2501.6699,-879.6111"/>
<polygon fill="none" stroke="#ffffff" points="2505.669,-883.6444 2301.7644,-883.6444 2301.7644,-834.8411 2505.669,-834.8411 2505.669,-883.6444"/>
<text text-anchor="middle" x="2403.7167" y="-851.1427" font-family="Times,serif" font-size="27.00" fill="#000000">NASNet-Mobile</text>
</g>
<!-- G4&#45;&gt;G0 -->
<g id="edge4" class="edge">
<title>G4-&gt;G0</title>
<path fill="none" stroke="#000000" d="M2501.4304,-883.4676C2582.9785,-903.6847 2698.828,-932.4058 2781.5843,-952.9224"/>
</g>
<!-- C1 -->
<g id="node7" class="node">
<title>C1</title>
<polygon fill="#ffffff" stroke="#ffffff" points="276.6921,-1047.5529 116.7413,-1047.5529 116.7413,-974.9326 276.6921,-974.9326 276.6921,-1047.5529"/>
<polygon fill="none" stroke="#ffffff" points="280.6915,-1051.543 112.7419,-1051.543 112.7419,-970.9425 280.6915,-970.9425 280.6915,-1051.543"/>
<text text-anchor="middle" x="196.7167" y="-1019.3427" font-family="Times,serif" font-size="27.00" fill="#000000">Adaptive</text>
<text text-anchor="middle" x="196.7167" y="-986.9427" font-family="Times,serif" font-size="27.00" fill="#000000">Thresholding</text>
</g>
<!-- C1&#45;&gt;B1 -->
<g id="edge10" class="edge">
<title>C1-&gt;B1</title>
<path fill="none" stroke="#000000" stroke-width="5" stroke-dasharray="1,5" d="M290.6181,-982.3864C351.4816,-963.6828 430.7113,-939.3351 492.9009,-920.2239"/>
<polygon fill="#000000" stroke="#000000" stroke-width="5" points="289.1838,-978.2501 280.9102,-985.3697 291.7542,-986.6141 289.1838,-978.2501"/>
<polygon fill="#000000" stroke="#000000" stroke-width="5" points="494.4566,-924.3228 502.7302,-917.2033 491.8862,-915.9589 494.4566,-924.3228"/>
</g>
<!-- C2 -->
<g id="node8" class="node">
<title>C2</title>
<polygon fill="#ffffff" stroke="#ffffff" points="262.638,-909.6111 130.7954,-909.6111 130.7954,-868.8744 262.638,-868.8744 262.638,-909.6111"/>
<polygon fill="none" stroke="#ffffff" points="266.6505,-913.6444 126.7829,-913.6444 126.7829,-864.8411 266.6505,-864.8411 266.6505,-913.6444"/>
<text text-anchor="middle" x="196.7167" y="-881.1427" font-family="Times,serif" font-size="27.00" fill="#000000">Watershed</text>
</g>
<!-- C2&#45;&gt;B1 -->
<g id="edge11" class="edge">
<title>C2-&gt;B1</title>
<path fill="none" stroke="#000000" stroke-width="5" stroke-dasharray="1,5" d="M276.9085,-889.2427C322.6286,-889.2427 381.5329,-889.2427 436.1223,-889.2427"/>
<polygon fill="#000000" stroke="#000000" stroke-width="5" points="276.7785,-884.8678 266.7785,-889.2427 276.7784,-893.6178 276.7785,-884.8678"/>
<polygon fill="#000000" stroke="#000000" stroke-width="5" points="436.2611,-893.6178 446.261,-889.2427 436.261,-884.8678 436.2611,-893.6178"/>
</g>
<!-- C3 -->
<g id="node9" class="node">
<title>C3</title>
<polygon fill="#ffffff" stroke="#ffffff" points="265.9501,-802.5529 127.4833,-802.5529 127.4833,-729.9326 265.9501,-729.9326 265.9501,-802.5529"/>
<polygon fill="none" stroke="#ffffff" points="269.9567,-806.543 123.4767,-806.543 123.4767,-725.9425 269.9567,-725.9425 269.9567,-806.543"/>
<text text-anchor="middle" x="196.7167" y="-774.3427" font-family="Times,serif" font-size="27.00" fill="#000000">Erosions &amp;</text>
<text text-anchor="middle" x="196.7167" y="-741.9427" font-family="Times,serif" font-size="27.00" fill="#000000">Dilations</text>
</g>
<!-- C3&#45;&gt;B1 -->
<g id="edge12" class="edge">
<title>C3-&gt;B1</title>
<path fill="none" stroke="#000000" stroke-width="5" stroke-dasharray="1,5" d="M279.8598,-792.0024C342.2045,-811.3183 427.7999,-837.8378 493.8557,-858.3034"/>
<polygon fill="#000000" stroke="#000000" stroke-width="5" points="280.8421,-787.7267 269.9953,-788.9462 278.2525,-796.0847 280.8421,-787.7267"/>
<polygon fill="#000000" stroke="#000000" stroke-width="5" points="492.6079,-862.497 503.4548,-861.2775 495.1975,-854.1389 492.6079,-862.497"/>
</g>
<!-- D1 -->
<g id="node10" class="node">
<title>D1</title>
<polygon fill="#ffffff" stroke="#ffffff" points="263.1686,-1436.6111 130.2648,-1436.6111 130.2648,-1395.8744 263.1686,-1395.8744 263.1686,-1436.6111"/>
<polygon fill="none" stroke="#ffffff" points="267.1672,-1440.6444 126.2662,-1440.6444 126.2662,-1391.8411 267.1672,-1391.8411 267.1672,-1440.6444"/>
<text text-anchor="middle" x="196.7167" y="-1408.1427" font-family="Times,serif" font-size="27.00" fill="#000000">Deeplabv3</text>
</g>
<!-- D1&#45;&gt;B1 -->
<g id="edge13" class="edge">
<title>D1-&gt;B1</title>
<path fill="none" stroke="#000000" stroke-width="5" stroke-dasharray="1,5" d="M277.3634,-1398.2446C316.6421,-1386.0201 362.178,-1366.2666 394.1919,-1335.2427 512.4082,-1220.6827 566.053,-1023.5084 585.0904,-934.8092"/>
<polygon fill="#000000" stroke="#000000" stroke-width="5" points="275.8478,-1394.1315 267.5242,-1401.1926 278.3592,-1402.5133 275.8478,-1394.1315"/>
<polygon fill="#000000" stroke="#000000" stroke-width="5" points="589.4197,-935.4806 587.1908,-924.7954 580.856,-933.6843 589.4197,-935.4806"/>
</g>
<!-- B1&#45;&gt;B2 -->
<g id="edge14" class="edge">
<title>B1-&gt;B2</title>
<path fill="none" stroke="#000000" stroke-width="8" d="M741.3869,-889.2427C880.6154,-889.2427 1088.6109,-889.2427 1231.0258,-889.2427"/>
<polygon fill="#000000" stroke="#000000" stroke-width="8" points="1231.1645,-896.2428 1241.1644,-889.2427 1231.1644,-882.2428 1231.1645,-896.2428"/>
</g>
<!-- out1 -->
<g id="node19" class="node">
<title>out1</title>
<polygon fill="none" stroke="#ff0000" points="1052.7537,-1105.9297 954.6797,-1105.9297 954.6797,-1000.5558 1052.7537,-1000.5558 1052.7537,-1105.9297"/>
<polygon fill="none" stroke="#ff0000" points="1056.7363,-1109.9363 950.6971,-1109.9363 950.6971,-996.5492 1056.7363,-996.5492 1056.7363,-1109.9363"/>
<polygon fill="none" stroke="#ff0000" points="1060.719,-1113.9429 946.7144,-1113.9429 946.7144,-992.5426 1060.719,-992.5426 1060.719,-1113.9429"/>
<text text-anchor="middle" x="1003.7167" y="-1077.5427" font-family="Times,serif" font-size="27.00" fill="#000000">Output:</text>
<text text-anchor="middle" x="1003.7167" y="-1045.1427" font-family="Times,serif" font-size="27.00" fill="#000000">Binary </text>
<text text-anchor="middle" x="1003.7167" y="-1012.7427" font-family="Times,serif" font-size="27.00" fill="#000000">Masks</text>
</g>
<!-- B1&#45;&gt;out1 -->
<g id="edge16" class="edge">
<title>B1-&gt;out1</title>
<path fill="none" stroke="#000000" stroke-width="3" stroke-dasharray="5,2" d="M669.8737,-919.7055C746.5574,-950.379 863.6907,-997.2323 936.8775,-1026.5071"/>
<polygon fill="#000000" stroke="#000000" stroke-width="3" points="935.8772,-1029.8765 946.4619,-1030.3408 938.477,-1023.3772 935.8772,-1029.8765"/>
</g>
<!-- out2 -->
<g id="node20" class="node">
<title>out2</title>
<polygon fill="none" stroke="#ff0000" points="1068.4622,-1514.9297 938.9712,-1514.9297 938.9712,-1409.5558 1068.4622,-1409.5558 1068.4622,-1514.9297"/>
<polygon fill="none" stroke="#ff0000" points="1072.4694,-1518.9363 934.964,-1518.9363 934.964,-1405.5492 1072.4694,-1405.5492 1072.4694,-1518.9363"/>
<polygon fill="none" stroke="#ff0000" points="1076.4765,-1522.9429 930.9569,-1522.9429 930.9569,-1401.5426 1076.4765,-1401.5426 1076.4765,-1522.9429"/>
<text text-anchor="middle" x="1003.7167" y="-1486.5427" font-family="Times,serif" font-size="27.00" fill="#000000">Output:</text>
<text text-anchor="middle" x="1003.7167" y="-1454.1427" font-family="Times,serif" font-size="27.00" fill="#000000">Bounding </text>
<text text-anchor="middle" x="1003.7167" y="-1421.7427" font-family="Times,serif" font-size="27.00" fill="#000000">Boxes</text>
</g>
<!-- B1&#45;&gt;out2 -->
<g id="edge17" class="edge">
<title>B1-&gt;out2</title>
<path fill="none" stroke="#000000" stroke-width="3" stroke-dasharray="5,2" d="M618.7012,-924.2598C671.8039,-998.673 799.8491,-1178.0345 907.47,-1328.2427 922.639,-1349.4144 939.1749,-1372.4517 954.1929,-1393.3584"/>
<polygon fill="#000000" stroke="#000000" stroke-width="3" points="951.4094,-1395.4827 960.0865,-1401.5621 957.0944,-1391.3985 951.4094,-1395.4827"/>
</g>
<!-- out25 -->
<g id="node21" class="node">
<title>out25</title>
<polygon fill="none" stroke="#ff0000" points="1092.1902,-1310.9297 915.2432,-1310.9297 915.2432,-1205.5558 1092.1902,-1205.5558 1092.1902,-1310.9297"/>
<polygon fill="none" stroke="#ff0000" points="1096.2005,-1314.9363 911.2329,-1314.9363 911.2329,-1201.5492 1096.2005,-1201.5492 1096.2005,-1314.9363"/>
<polygon fill="none" stroke="#ff0000" points="1100.2107,-1318.9429 907.2227,-1318.9429 907.2227,-1197.5426 1100.2107,-1197.5426 1100.2107,-1318.9429"/>
<text text-anchor="middle" x="1003.7167" y="-1282.5427" font-family="Times,serif" font-size="27.00" fill="#000000">Output:</text>
<text text-anchor="middle" x="1003.7167" y="-1250.1427" font-family="Times,serif" font-size="27.00" fill="#000000">Blob Analysis </text>
<text text-anchor="middle" x="1003.7167" y="-1217.7427" font-family="Times,serif" font-size="27.00" fill="#000000">Statistics</text>
</g>
<!-- B1&#45;&gt;out25 -->
<g id="edge18" class="edge">
<title>B1-&gt;out25</title>
<path fill="none" stroke="#000000" stroke-width="3" stroke-dasharray="5,2" d="M631.9203,-923.626C699.4312,-984.3858 840.955,-1111.7572 928.6071,-1190.6441"/>
<polygon fill="#000000" stroke="#000000" stroke-width="3" points="926.3563,-1193.3272 936.1307,-1197.4153 931.0391,-1188.1241 926.3563,-1193.3272"/>
</g>
<!-- F1 -->
<g id="node13" class="node">
<title>F1</title>
<ellipse fill="#ffffff" stroke="#ffffff" cx="1674.7167" cy="-200.2427" rx="100.7888" ry="35.2113"/>
<text text-anchor="middle" x="1674.7167" y="-189.7427" font-family="Times,serif" font-size="35.00" fill="#000000">Tracking</text>
</g>
<!-- B2&#45;&gt;F1 -->
<g id="edge15" class="edge">
<title>B2-&gt;F1</title>
<path fill="none" stroke="#000000" stroke-width="8" d="M1403.4911,-853.65C1451.4832,-738.0325 1602.956,-373.1207 1656.0823,-245.1347"/>
<polygon fill="#000000" stroke="#000000" stroke-width="8" points="1662.6619,-247.5424 1660.0306,-235.6228 1649.7317,-242.175 1662.6619,-247.5424"/>
</g>
<!-- out3 -->
<g id="node22" class="node">
<title>out3</title>
<polygon fill="none" stroke="#ff0000" points="1767.9166,-1082.5609 1581.5168,-1082.5609 1581.5168,-1009.9245 1767.9166,-1009.9245 1767.9166,-1082.5609"/>
<polygon fill="none" stroke="#ff0000" points="1771.9207,-1086.552 1577.5127,-1086.552 1577.5127,-1005.9335 1771.9207,-1005.9335 1771.9207,-1086.552"/>
<polygon fill="none" stroke="#ff0000" points="1775.9248,-1090.543 1573.5086,-1090.543 1573.5086,-1001.9425 1775.9248,-1001.9425 1775.9248,-1090.543"/>
<text text-anchor="middle" x="1674.7167" y="-1054.3427" font-family="Times,serif" font-size="27.00" fill="#000000">Output:</text>
<text text-anchor="middle" x="1674.7167" y="-1021.9427" font-family="Times,serif" font-size="27.00" fill="#000000">Softmax Scores</text>
</g>
<!-- B2&#45;&gt;out3 -->
<g id="edge19" class="edge">
<title>B2-&gt;out3</title>
<path fill="none" stroke="#000000" stroke-width="3" stroke-dasharray="5,2" d="M1447.9761,-921.7732C1487.5506,-943.4977 1540.3366,-972.4746 1585.0195,-997.0034"/>
<polygon fill="#000000" stroke="#000000" stroke-width="3" points="1583.3915,-1000.1023 1593.8418,-1001.8464 1586.76,-993.9661 1583.3915,-1000.1023"/>
</g>
<!-- out4 -->
<g id="node23" class="node">
<title>out4</title>
<polygon fill="none" stroke="#ff0000" points="1723.7537,-925.5609 1625.6797,-925.5609 1625.6797,-852.9245 1723.7537,-852.9245 1723.7537,-925.5609"/>
<polygon fill="none" stroke="#ff0000" points="1727.7363,-929.552 1621.6971,-929.552 1621.6971,-848.9335 1727.7363,-848.9335 1727.7363,-929.552"/>
<polygon fill="none" stroke="#ff0000" points="1731.719,-933.543 1617.7144,-933.543 1617.7144,-844.9425 1731.719,-844.9425 1731.719,-933.543"/>
<text text-anchor="middle" x="1674.7167" y="-897.3427" font-family="Times,serif" font-size="27.00" fill="#000000">Output:</text>
<text text-anchor="middle" x="1674.7167" y="-864.9427" font-family="Times,serif" font-size="27.00" fill="#000000">Labels</text>
</g>
<!-- B2&#45;&gt;out4 -->
<g id="edge20" class="edge">
<title>B2-&gt;out4</title>
<path fill="none" stroke="#000000" stroke-width="3" stroke-dasharray="5,2" d="M1536.3244,-889.2427C1561.2085,-889.2427 1585.9063,-889.2427 1607.3997,-889.2427"/>
<polygon fill="#000000" stroke="#000000" stroke-width="3" points="1607.6804,-892.7428 1617.6804,-889.2427 1607.6803,-885.7428 1607.6804,-892.7428"/>
</g>
<!-- F2 -->
<g id="node14" class="node">
<title>F2</title>
<ellipse fill="#ffffff" stroke="#ffffff" cx="2403.7167" cy="-156.2427" rx="97.8389" ry="65.1077"/>
<text text-anchor="middle" x="2403.7167" y="-166.7427" font-family="Times,serif" font-size="35.00" fill="#000000">Data</text>
<text text-anchor="middle" x="2403.7167" y="-124.7427" font-family="Times,serif" font-size="35.00" fill="#000000">Analysis</text>
</g>
<!-- F1&#45;&gt;F2 -->
<g id="edge5" class="edge">
<title>F1-&gt;F2</title>
<path fill="none" stroke="#000000" stroke-width="8" d="M1774.1717,-194.24C1910.6328,-186.0036 2154.9829,-171.2555 2295.7643,-162.7584"/>
<polygon fill="#000000" stroke="#000000" stroke-width="8" points="2296.5755,-169.7223 2306.1356,-162.1324 2295.7319,-155.7477 2296.5755,-169.7223"/>
</g>
<!-- out6 -->
<g id="node24" class="node">
<title>out6</title>
<polygon fill="none" stroke="#ff0000" points="2119.9089,-704.9297 1947.5245,-704.9297 1947.5245,-599.5558 2119.9089,-599.5558 2119.9089,-704.9297"/>
<polygon fill="none" stroke="#ff0000" points="2123.9021,-708.9363 1943.5313,-708.9363 1943.5313,-595.5492 2123.9021,-595.5492 2123.9021,-708.9363"/>
<polygon fill="none" stroke="#ff0000" points="2127.8953,-712.9429 1939.5381,-712.9429 1939.5381,-591.5426 2127.8953,-591.5426 2127.8953,-712.9429"/>
<text text-anchor="middle" x="2033.7167" y="-676.5427" font-family="Times,serif" font-size="27.00" fill="#000000">Output:</text>
<text text-anchor="middle" x="2033.7167" y="-644.1427" font-family="Times,serif" font-size="27.00" fill="#000000">Cell </text>
<text text-anchor="middle" x="2033.7167" y="-611.7427" font-family="Times,serif" font-size="27.00" fill="#000000">Data Structure</text>
</g>
<!-- F1&#45;&gt;out6 -->
<g id="edge21" class="edge">
<title>F1-&gt;out6</title>
<path fill="none" stroke="#000000" stroke-width="3" stroke-dasharray="5,2" d="M1699.7798,-234.5707C1742.9305,-293.3359 1834.5246,-416.609 1916.4613,-517.2427 1934.3546,-539.2191 1954.3969,-562.6889 1972.7802,-583.7925"/>
<polygon fill="#000000" stroke="#000000" stroke-width="3" points="1970.2567,-586.2237 1979.4709,-591.4533 1975.529,-581.619 1970.2567,-586.2237"/>
</g>
<!-- out65 -->
<g id="node25" class="node">
<title>out65</title>
<polygon fill="none" stroke="#ff0000" points="2082.7537,-499.9297 1984.6797,-499.9297 1984.6797,-394.5558 2082.7537,-394.5558 2082.7537,-499.9297"/>
<polygon fill="none" stroke="#ff0000" points="2086.7363,-503.9363 1980.6971,-503.9363 1980.6971,-390.5492 2086.7363,-390.5492 2086.7363,-503.9363"/>
<polygon fill="none" stroke="#ff0000" points="2090.719,-507.9429 1976.7144,-507.9429 1976.7144,-386.5426 2090.719,-386.5426 2090.719,-507.9429"/>
<text text-anchor="middle" x="2033.7167" y="-471.5427" font-family="Times,serif" font-size="27.00" fill="#000000">Output:</text>
<text text-anchor="middle" x="2033.7167" y="-439.1427" font-family="Times,serif" font-size="27.00" fill="#000000">Well </text>
<text text-anchor="middle" x="2033.7167" y="-406.7427" font-family="Times,serif" font-size="27.00" fill="#000000">Videos</text>
</g>
<!-- F1&#45;&gt;out65 -->
<g id="edge22" class="edge">
<title>F1-&gt;out65</title>
<path fill="none" stroke="#000000" stroke-width="3" stroke-dasharray="5,2" d="M1720.5489,-231.7763C1783.3067,-274.9551 1896.3557,-352.7353 1968.0852,-402.0868"/>
<polygon fill="#000000" stroke="#000000" stroke-width="3" points="1966.3994,-405.1753 1976.6217,-407.9601 1970.3672,-399.4084 1966.3994,-405.1753"/>
</g>
<!-- out7 -->
<g id="node26" class="node">
<title>out7</title>
<polygon fill="none" stroke="#ff0000" points="2734.4271,-298.9297 2551.0063,-298.9297 2551.0063,-193.5558 2734.4271,-193.5558 2734.4271,-298.9297"/>
<polygon fill="none" stroke="#ff0000" points="2738.4315,-302.9363 2547.0019,-302.9363 2547.0019,-189.5492 2738.4315,-189.5492 2738.4315,-302.9363"/>
<polygon fill="none" stroke="#ff0000" points="2742.4359,-306.9429 2542.9975,-306.9429 2542.9975,-185.5426 2742.4359,-185.5426 2742.4359,-306.9429"/>
<text text-anchor="middle" x="2642.7167" y="-270.5427" font-family="Times,serif" font-size="27.00" fill="#000000">Output:</text>
<text text-anchor="middle" x="2642.7167" y="-238.1427" font-family="Times,serif" font-size="27.00" fill="#000000">Morphological </text>
<text text-anchor="middle" x="2642.7167" y="-205.7427" font-family="Times,serif" font-size="27.00" fill="#000000">Index</text>
</g>
<!-- F2&#45;&gt;out7 -->
<g id="edge23" class="edge">
<title>F2-&gt;out7</title>
<path fill="none" stroke="#000000" stroke-width="3" stroke-dasharray="5,2" d="M2488.989,-188.3536C2503.2849,-193.7371 2518.2947,-199.3893 2533.1006,-204.9647"/>
<polygon fill="#000000" stroke="#000000" stroke-width="3" points="2532.1994,-208.3652 2542.7913,-208.6139 2534.6663,-201.8143 2532.1994,-208.3652"/>
</g>
<!-- out8 -->
<g id="node27" class="node">
<title>out8</title>
<polygon fill="none" stroke="#ff0000" points="2702.9494,-101.5609 2582.484,-101.5609 2582.484,-28.9245 2702.9494,-28.9245 2702.9494,-101.5609"/>
<polygon fill="none" stroke="#ff0000" points="2706.9567,-105.552 2578.4767,-105.552 2578.4767,-24.9335 2706.9567,-24.9335 2706.9567,-105.552"/>
<polygon fill="none" stroke="#ff0000" points="2710.9639,-109.543 2574.4695,-109.543 2574.4695,-20.9425 2710.9639,-20.9425 2710.9639,-109.543"/>
<text text-anchor="middle" x="2642.7167" y="-73.3427" font-family="Times,serif" font-size="27.00" fill="#000000">Output:</text>
<text text-anchor="middle" x="2642.7167" y="-40.9427" font-family="Times,serif" font-size="27.00" fill="#000000"> Statistics</text>
</g>
<!-- F2&#45;&gt;out8 -->
<g id="edge24" class="edge">
<title>F2-&gt;out8</title>
<path fill="none" stroke="#000000" stroke-width="3" stroke-dasharray="5,2" d="M2488.989,-123.7751C2513.7236,-114.3573 2540.5949,-104.1259 2564.8507,-94.8905"/>
<polygon fill="#000000" stroke="#000000" stroke-width="3" points="2566.2607,-98.0988 2574.3608,-91.2695 2563.7698,-91.5569 2566.2607,-98.0988"/>
</g>
<!-- H0 -->
<g id="node15" class="node">
<title>H0</title>
<ellipse fill="#ffffff" stroke="#ffffff" cx="1388.7167" cy="-200.2427" rx="89.1301" ry="89.1301"/>
<ellipse fill="none" stroke="#ffffff" cx="1388.7167" cy="-200.2427" rx="93.133" ry="93.133"/>
<text text-anchor="middle" x="1388.7167" y="-227.2427" font-family="Times,serif" font-size="30.00" fill="#000000">Cell</text>
<text text-anchor="middle" x="1388.7167" y="-191.2427" font-family="Times,serif" font-size="30.00" fill="#000000">Data</text>
<text text-anchor="middle" x="1388.7167" y="-155.2427" font-family="Times,serif" font-size="30.00" fill="#000000">Structure</text>
</g>
<!-- H0&#45;&gt;F1 -->
<g id="edge26" class="edge">
<title>H0-&gt;F1</title>
<path fill="none" stroke="#000000" stroke-width="5" stroke-dasharray="1,5" d="M1492.054,-200.2427C1515.3221,-200.2427 1540.1116,-200.2427 1563.6802,-200.2427"/>
<polygon fill="#000000" stroke="#000000" stroke-width="5" points="1491.9681,-195.8678 1481.9681,-200.2427 1491.968,-204.6178 1491.9681,-195.8678"/>
<polygon fill="#000000" stroke="#000000" stroke-width="5" points="1563.6984,-204.6178 1573.6983,-200.2427 1563.6983,-195.8678 1563.6984,-204.6178"/>
</g>
<!-- H1 -->
<g id="node16" class="node">
<title>H1</title>
<polygon fill="#ffffff" stroke="#ffffff" points="682.5945,-323.5588 504.8389,-323.5588 504.8389,-280.9267 682.5945,-280.9267 682.5945,-323.5588"/>
<polygon fill="none" stroke="#ffffff" points="686.5918,-327.5431 500.8416,-327.5431 500.8416,-276.9423 686.5918,-276.9423 686.5918,-327.5431"/>
<text text-anchor="middle" x="593.7167" y="-293.5427" font-family="Times,serif" font-size="29.00" fill="#000000">Kalman Filter</text>
</g>
<!-- H1&#45;&gt;H0 -->
<g id="edge6" class="edge">
<title>H1-&gt;H0</title>
<path fill="none" stroke="#000000" d="M686.8598,-290.2923C840.1065,-270.6305 1143.6185,-231.6893 1296.3536,-212.0931"/>
</g>
<!-- H2 -->
<g id="node17" class="node">
<title>H2</title>
<polygon fill="#ffffff" stroke="#ffffff" points="753.0312,-221.5588 434.4021,-221.5588 434.4021,-178.9267 753.0312,-178.9267 753.0312,-221.5588"/>
<polygon fill="none" stroke="#ffffff" points="757.029,-225.5431 430.4044,-225.5431 430.4044,-174.9423 757.029,-174.9423 757.029,-225.5431"/>
<text text-anchor="middle" x="593.7167" y="-191.5427" font-family="Times,serif" font-size="29.00" fill="#000000">Softmax Moving Average</text>
</g>
<!-- H2&#45;&gt;H0 -->
<g id="edge7" class="edge">
<title>H2-&gt;H0</title>
<path fill="none" stroke="#000000" d="M757.4773,-200.2427C920.0898,-200.2427 1163.6441,-200.2427 1295.6358,-200.2427"/>
</g>
<!-- H3 -->
<g id="node18" class="node">
<title>H3</title>
<polygon fill="#ffffff" stroke="#ffffff" points="727.1803,-120.5588 460.2531,-120.5588 460.2531,-77.9267 727.1803,-77.9267 727.1803,-120.5588"/>
<polygon fill="none" stroke="#ffffff" points="731.1872,-124.5431 456.2462,-124.5431 456.2462,-73.9423 731.1872,-73.9423 731.1872,-124.5431"/>
<text text-anchor="middle" x="593.7167" y="-90.5427" font-family="Times,serif" font-size="29.00" fill="#000000">Hungarian Algorithm</text>
</g>
<!-- H3&#45;&gt;H0 -->
<g id="edge8" class="edge">
<title>H3-&gt;H0</title>
<path fill="none" stroke="#000000" d="M731.2875,-116.7203C893.0538,-137.2717 1157.0945,-170.8165 1296.2263,-188.4924"/>
</g>
<!-- t1 -->
<g id="node28" class="node">
<title>t1</title>
<polygon fill="none" stroke="#00ff00" points="1528.1582,-1645.9297 1249.2752,-1645.9297 1249.2752,-1540.5558 1528.1582,-1540.5558 1528.1582,-1645.9297"/>
<polygon fill="none" stroke="#00ff00" points="1532.1644,-1649.9363 1245.269,-1649.9363 1245.269,-1536.5492 1532.1644,-1536.5492 1532.1644,-1649.9363"/>
<polygon fill="none" stroke="#00ff00" points="1536.1705,-1653.9429 1241.2628,-1653.9429 1241.2628,-1532.5426 1536.1705,-1532.5426 1536.1705,-1653.9429"/>
<text text-anchor="middle" x="1388.7167" y="-1617.5427" font-family="Times,serif" font-size="27.00" fill="#000000">Training Dataset:</text>
<text text-anchor="middle" x="1388.7167" y="-1585.1427" font-family="Times,serif" font-size="27.00" fill="#000000"> Semantic Segmentation</text>
<text text-anchor="middle" x="1388.7167" y="-1552.7427" font-family="Times,serif" font-size="27.00" fill="#000000">Pixel Labels</text>
</g>
<!-- out1&#45;&gt;t1 -->
<g id="edge32" class="edge">
<title>out1-&gt;t1</title>
<path fill="none" stroke="#0000ff" stroke-width="5" stroke-dasharray="5,2" d="M1046.9464,-1113.8766C1119.0507,-1215.01 1263.4278,-1417.5128 1339.392,-1524.06"/>
<polygon fill="#0000ff" stroke="#0000ff" stroke-width="5" points="1336.0426,-1526.8986 1345.4103,-1532.5012 1343.1673,-1521.819 1336.0426,-1526.8986"/>
<text text-anchor="middle" x="1170.7167" y="-1364.2427" font-family="Times,serif" font-size="30.00" fill="#000000">Curation</text>
</g>
<!-- t2 -->
<g id="node29" class="node">
<title>t2</title>
<polygon fill="none" stroke="#00ff00" points="2142.7447,-1218.864 1924.6887,-1218.864 1924.6887,-1081.6214 2142.7447,-1081.6214 2142.7447,-1218.864"/>
<polygon fill="none" stroke="#00ff00" points="2146.7363,-1222.8537 1920.6971,-1222.8537 1920.6971,-1077.6318 2146.7363,-1077.6318 2146.7363,-1222.8537"/>
<polygon fill="none" stroke="#00ff00" points="2150.728,-1226.8433 1916.7054,-1226.8433 1916.7054,-1073.6422 2150.728,-1073.6422 2150.728,-1226.8433"/>
<text text-anchor="middle" x="2033.7167" y="-1190.7427" font-family="Times,serif" font-size="27.00" fill="#000000">Training Dataset:</text>
<text text-anchor="middle" x="2033.7167" y="-1158.3427" font-family="Times,serif" font-size="27.00" fill="#000000"> Correctly Labeled</text>
<text text-anchor="middle" x="2033.7167" y="-1125.9427" font-family="Times,serif" font-size="27.00" fill="#000000"> RBC Morphology</text>
<text text-anchor="middle" x="2033.7167" y="-1093.5427" font-family="Times,serif" font-size="27.00" fill="#000000"> Images</text>
</g>
<!-- out4&#45;&gt;t2 -->
<g id="edge33" class="edge">
<title>out4-&gt;t2</title>
<path fill="none" stroke="#0000ff" stroke-width="5" stroke-dasharray="5,2" d="M1731.9983,-930.8876C1782.393,-967.5255 1857.2639,-1021.9581 1919.8131,-1067.4326"/>
<polygon fill="#0000ff" stroke="#0000ff" stroke-width="5" points="1917.4992,-1071.1594 1928.1603,-1073.5012 1922.6446,-1064.0821 1917.4992,-1071.1594"/>
<text text-anchor="middle" x="1845.7167" y="-1059.2427" font-family="Times,serif" font-size="30.00" fill="#000000">Curation</text>
</g>
<!-- t1&#45;&gt;D1 -->
<g id="edge27" class="edge">
<title>t1-&gt;D1</title>
<path fill="none" stroke="#0000ff" stroke-width="5" stroke-dasharray="5,2" d="M1241.3618,-1575.9467C1146.0118,-1564.4139 1019.2598,-1548.4448 907.47,-1532.2427 678.3437,-1499.0347 408.8073,-1453.1742 277.2061,-1430.3406"/>
<polygon fill="#0000ff" stroke="#0000ff" stroke-width="5" points="277.8059,-1426.0043 267.2047,-1428.6035 276.3085,-1434.6253 277.8059,-1426.0043"/>
<text text-anchor="middle" x="832.7167" y="-1538.2427" font-family="Times,serif" font-size="30.00" fill="#000000">Feedback</text>
</g>
<!-- t2&#45;&gt;G1 -->
<g id="edge28" class="edge">
<title>t2-&gt;G1</title>
<path fill="none" stroke="#0000ff" stroke-width="5" stroke-dasharray="5,2" d="M2150.787,-1150.2427C2205.7514,-1150.2427 2270.0059,-1150.2427 2319.9974,-1150.2427"/>
<polygon fill="#0000ff" stroke="#0000ff" stroke-width="5" points="2320.1189,-1154.6178 2330.1189,-1150.2427 2320.1188,-1145.8678 2320.1189,-1154.6178"/>
<text text-anchor="middle" x="2226.7167" y="-1159.2427" font-family="Times,serif" font-size="30.00" fill="#000000">Feedback</text>
</g>
<!-- t2&#45;&gt;G2 -->
<g id="edge29" class="edge">
<title>t2-&gt;G2</title>
<path fill="none" stroke="#0000ff" stroke-width="5" stroke-dasharray="5,2" d="M2150.7853,-1115.3059C2157.0208,-1113.5655 2163.2031,-1111.8675 2169.2442,-1110.2427 2214.282,-1098.1298 2264.4908,-1085.7724 2306.8557,-1075.674"/>
<polygon fill="#0000ff" stroke="#0000ff" stroke-width="5" points="2307.8894,-1079.9253 2316.6068,-1073.3565 2305.8661,-1071.4124 2307.8894,-1079.9253"/>
<text text-anchor="middle" x="2226.7167" y="-1119.2427" font-family="Times,serif" font-size="30.00" fill="#000000">Feedback</text>
</g>
<!-- t2&#45;&gt;G3 -->
<g id="edge30" class="edge">
<title>t2-&gt;G3</title>
<path fill="none" stroke="#0000ff" stroke-width="5" stroke-dasharray="5,2" d="M2121.9805,-1073.3726C2137.1781,-1062.0772 2153.2468,-1051.2372 2169.2442,-1042.2427 2217.5844,-1015.0639 2276.15,-993.576 2322.6568,-978.8767"/>
<polygon fill="#0000ff" stroke="#0000ff" stroke-width="5" points="2324.1444,-982.9957 2332.3898,-975.8435 2321.5409,-974.642 2324.1444,-982.9957"/>
<text text-anchor="middle" x="2226.7167" y="-1051.2427" font-family="Times,serif" font-size="30.00" fill="#000000">Feedback</text>
</g>
<!-- t2&#45;&gt;G4 -->
<g id="edge31" class="edge">
<title>t2-&gt;G4</title>
<path fill="none" stroke="#0000ff" stroke-width="5" stroke-dasharray="5,2" d="M2071.9041,-1073.295C2095.2967,-1032.7128 2128.5625,-984.7441 2169.2442,-952.2427 2206.3804,-922.574 2254.1761,-901.3454 2296.9166,-886.7333"/>
<polygon fill="#0000ff" stroke="#0000ff" stroke-width="5" points="2298.418,-890.8445 2306.5205,-883.5307 2295.65,-882.5439 2298.418,-890.8445"/>
<text text-anchor="middle" x="2226.7167" y="-961.2427" font-family="Times,serif" font-size="30.00" fill="#000000">Feedback</text>
</g>
</g>
</svg>